<?xml version="1.0" standalone="no"?>
<!DOCTYPE svg PUBLIC "-//W3C//DTD SVG 20010904//EN"
 "http://www.w3.org/TR/2001/REC-SVG-20010904/DTD/svg10.dtd">
<svg version="1.0" xmlns="http://www.w3.org/2000/svg"
 width="1170.000000pt" height="853.000000pt" viewBox="0 0 1170.000000 853.000000"
 preserveAspectRatio="xMidYMid meet">

<g transform="translate(0.000000,853.000000) scale(0.100000,-0.100000)"
fill="#000000" stroke="none">
<path d="M5276 7407 c-114 -61 -232 -202 -375 -444 -83 -140 -169 -342 -206
-483 -25 -97 -27 -119 -26 -281 1 -202 4 -236 33 -374 11 -55 22 -111 25 -125
24 -137 188 -524 256 -606 13 -16 27 -38 31 -50 3 -11 39 -70 79 -131 40 -60
78 -123 84 -139 7 -16 17 -146 23 -289 7 -143 14 -263 16 -266 3 -5 -9 -134
-21 -218 -2 -18 -25 -99 -51 -180 -94 -295 -103 -317 -104 -276 -6 136 -9 178
-19 225 -6 30 -18 162 -26 292 -9 130 -23 269 -31 309 -9 42 -17 149 -19 259
-3 119 -9 198 -17 215 -11 25 -10 29 15 49 l28 23 -22 59 c-26 73 -49 99 -78
89 -11 -3 -21 -13 -21 -21 0 -9 -7 -22 -15 -30 -29 -29 -14 -113 18 -101 9 3
17 -1 20 -13 5 -20 -9 -40 -29 -40 -24 0 -32 -277 -14 -450 5 -52 14 -143 19
-202 5 -59 13 -113 17 -120 5 -7 7 -53 6 -103 -2 -58 2 -111 12 -147 10 -40
15 -102 14 -201 l-1 -144 -111 -16 c-61 -10 -140 -21 -176 -27 -36 -5 -92 -13
-125 -19 -123 -19 -272 -40 -336 -45 l-65 -6 -16 33 c-23 49 -126 156 -165
172 -18 8 -53 15 -77 16 -37 2 -49 -2 -75 -27 l-31 -29 0 -111 0 -112 -67 -17
c-38 -9 -84 -18 -103 -21 -68 -9 -216 -37 -270 -51 -30 -8 -70 -16 -89 -18
-19 -3 -48 -9 -65 -14 -17 -5 -49 -12 -71 -16 -22 -3 -78 -14 -125 -25 -47
-10 -116 -23 -155 -30 -38 -6 -83 -16 -100 -21 -16 -5 -97 -20 -178 -34 -82
-14 -157 -30 -168 -35 -18 -10 -93 -22 -219 -36 -25 -2 -58 -8 -75 -13 -16 -5
-49 -13 -72 -16 -24 -4 -46 -11 -49 -16 -3 -6 -15 -7 -25 -4 -11 4 -30 0 -42
-7 -12 -8 -40 -15 -61 -17 -22 -1 -43 -4 -47 -7 -7 -4 -161 -40 -294 -69 -33
-7 -105 -25 -160 -40 -55 -15 -119 -31 -143 -36 -23 -5 -75 -22 -115 -39 -40
-17 -106 -37 -147 -45 -177 -31 -452 -163 -490 -236 -6 -10 -7 -31 -4 -45 9
-36 151 -104 216 -104 24 0 49 -5 55 -11 13 -13 548 -16 675 -4 42 4 101 9
130 11 121 9 284 24 294 28 6 2 17 0 24 -4 7 -5 23 -4 36 0 21 8 174 28 279
35 28 2 111 11 185 20 74 8 155 17 180 19 132 10 206 19 215 26 6 4 30 10 55
13 25 3 92 11 150 17 58 7 123 14 145 16 22 2 148 15 280 29 132 14 260 28
285 30 51 5 201 23 242 30 24 4 30 -2 55 -52 32 -65 103 -147 144 -168 52 -27
136 -19 219 21 41 19 82 42 91 50 13 12 18 12 22 2 34 -82 77 -196 77 -206 0
-7 4 -20 10 -30 16 -28 45 -99 115 -277 77 -195 173 -394 214 -445 16 -20 43
-63 60 -95 44 -85 54 -96 92 -95 19 0 67 -3 107 -6 60 -5 76 -3 100 12 15 11
36 21 47 24 11 3 73 61 137 130 l115 125 96 195 c93 191 148 320 183 430 9 30
27 78 39 105 12 28 27 68 33 90 6 22 32 106 57 186 25 80 45 156 45 167 0 36
22 72 44 72 12 0 62 5 111 11 50 5 137 14 195 19 58 4 152 13 210 19 181 19
312 30 405 36 50 3 115 7 145 10 46 4 315 20 690 41 41 2 136 7 210 11 219 12
933 6 1225 -11 479 -27 742 -31 890 -11 172 22 211 26 267 28 26 1 53 8 59 14
7 7 23 13 35 13 29 0 112 45 152 83 52 50 74 91 66 124 -16 64 -47 118 -101
174 -31 32 -54 62 -51 65 3 3 37 -2 74 -11 38 -10 85 -21 104 -25 82 -20 190
-56 256 -86 71 -32 104 -62 104 -95 0 -9 9 -28 21 -43 27 -34 68 -34 108 0 55
46 35 128 -47 192 -97 75 -280 151 -413 172 -35 5 -102 19 -149 30 -47 11
-110 25 -140 31 -30 6 -75 15 -100 20 -25 5 -74 14 -110 19 -97 16 -200 50
-430 144 -291 119 -498 244 -790 479 -30 24 -73 55 -95 69 -22 14 -63 47 -90
74 -134 130 -164 154 -196 154 -18 0 -47 -9 -65 -21 -37 -22 -114 -106 -114
-122 0 -6 -11 -22 -24 -36 -14 -15 -31 -44 -39 -66 -76 -206 -73 -203 -155
-160 -58 30 -71 42 -148 130 -85 97 -114 157 -114 238 0 80 -26 123 -69 112
-43 -10 -55 -32 -67 -113 -25 -173 -54 -273 -120 -404 -34 -70 -74 -143 -88
-161 -14 -19 -29 -48 -32 -66 -6 -28 -3 -36 22 -56 38 -30 57 -20 90 48 13 29
54 99 90 157 39 63 73 133 86 175 25 84 31 93 49 67 8 -10 47 -55 87 -100 111
-121 216 -170 337 -157 l63 7 26 58 c14 32 26 66 26 77 0 10 4 23 8 28 4 6 14
28 21 50 18 52 91 175 108 182 8 3 59 -38 126 -104 64 -62 132 -119 158 -131
25 -12 83 -54 128 -92 46 -39 87 -70 91 -70 5 0 37 -22 71 -50 57 -45 335
-210 355 -210 5 0 45 -18 89 -41 l80 -41 -135 7 c-234 10 -328 14 -585 20
-669 15 -837 13 -1680 -19 -198 -8 -361 -13 -363 -11 -6 5 25 100 46 141 11
21 25 66 32 99 17 88 32 135 40 130 4 -3 11 -26 14 -52 4 -27 16 -93 27 -148
23 -113 39 -134 102 -135 34 0 37 2 37 29 0 16 -4 41 -10 55 -5 15 -19 95 -29
179 -11 83 -25 177 -32 207 -6 30 -12 73 -14 95 -6 69 -7 294 -1 303 10 16 55
200 62 252 4 32 11 50 20 50 31 0 218 -182 284 -277 8 -12 24 -24 36 -27 20
-6 21 -5 10 36 -13 49 -61 137 -103 188 -44 54 -154 160 -196 188 -30 20 -37
30 -32 46 3 12 8 143 11 291 7 357 -22 835 -67 1080 -11 61 -28 171 -39 245
-23 167 -56 350 -73 410 -52 180 -63 205 -103 247 -67 71 -118 52 -148 -52
-25 -86 -33 -113 -52 -175 -9 -30 -22 -104 -29 -165 -7 -60 -20 -141 -29 -179
-48 -204 -62 -516 -31 -741 8 -60 15 -131 15 -156 0 -25 9 -94 21 -155 11 -60
31 -170 45 -244 21 -124 35 -187 63 -295 6 -22 11 -56 11 -75 -1 -34 -2 -36
-83 -69 -223 -91 -334 -152 -418 -229 -40 -38 -52 -55 -56 -87 -5 -38 -2 -44
36 -78 88 -80 153 -74 103 8 -22 37 -32 70 -23 82 9 15 330 179 386 198 27 9
55 21 62 27 21 17 32 0 57 -85 100 -338 121 -467 93 -554 -8 -26 -21 -77 -27
-113 -13 -68 -61 -237 -87 -305 -9 -22 -23 -61 -33 -88 -9 -26 -20 -50 -24
-54 -3 -3 -6 -15 -6 -25 0 -29 -32 -36 -224 -47 -153 -9 -182 -8 -200 4 -11 8
-72 66 -134 128 l-113 112 5 65 c15 177 16 334 6 650 -12 390 -15 439 -36 600
-8 63 -21 180 -29 259 -8 80 -21 172 -29 205 -8 34 -19 108 -25 166 -15 137
-30 237 -43 278 -5 18 -16 74 -23 125 -8 51 -19 113 -24 140 -33 148 -32 142
-52 267 -16 99 -77 355 -106 440 -13 41 -43 109 -65 150 -99 186 -222 243
-362 167z m134 -97 c0 -5 -4 -10 -9 -10 -6 0 -13 5 -16 10 -3 6 1 10 9 10 9 0
16 -4 16 -10z m100 -56 c34 -39 97 -169 107 -219 3 -16 16 -53 28 -81 13 -28
28 -89 34 -135 6 -46 21 -115 32 -154 11 -38 24 -95 30 -125 6 -30 17 -86 25
-125 7 -38 18 -108 24 -155 5 -47 15 -101 20 -120 6 -19 15 -71 20 -115 14
-110 34 -247 59 -390 20 -119 27 -172 55 -475 17 -176 41 -733 33 -755 -3 -7
-7 -102 -8 -210 -1 -107 -5 -194 -8 -193 -22 10 -172 181 -240 273 -85 116
-93 126 -169 216 -83 99 -94 113 -114 158 -20 43 -20 45 -1 310 12 179 18 363
17 563 -2 283 -3 303 -29 415 -36 159 -47 183 -84 183 -21 0 -35 -8 -49 -27
-44 -63 -132 -253 -147 -316 -20 -90 -20 -335 1 -541 8 -87 13 -160 11 -162
-2 -3 -24 28 -47 68 -24 40 -56 93 -71 118 -36 58 -117 241 -134 302 -8 25
-18 55 -24 66 -6 11 -15 37 -20 58 -5 22 -18 73 -29 114 -28 101 -50 288 -47
382 9 244 16 288 60 398 93 227 192 430 210 430 7 0 27 17 44 38 17 20 39 46
48 57 10 11 18 28 19 37 2 26 59 91 99 113 l37 19 20 -27 c24 -33 63 -38 55
-7 -7 26 27 50 69 50 24 0 40 -9 64 -36z m-395 -113 c-9 -18 -13 -36 -10 -42
9 -13 -22 -59 -40 -59 -12 0 -11 6 3 38 31 66 53 104 58 99 3 -3 -2 -19 -11
-36z m1749 -63 c15 -24 81 -351 91 -453 3 -33 10 -76 15 -95 29 -117 76 -566
90 -859 9 -207 -2 -605 -19 -623 -3 -4 -35 -4 -71 0 -57 6 -66 10 -78 34 -14
29 -31 104 -36 158 -2 19 -9 53 -15 75 -6 22 -18 74 -27 115 -9 41 -20 93 -26
115 -10 44 -23 121 -38 230 -5 39 -14 104 -20 145 -21 143 -24 481 -6 649 9
84 18 157 21 161 3 5 8 42 10 82 8 112 15 145 36 164 10 9 19 26 19 37 0 11 8
26 18 33 16 13 16 13 0 14 -10 0 -18 6 -18 13 0 34 34 36 54 5z m-1528 -1393
c12 -73 15 -128 10 -205 -4 -58 -11 -214 -16 -347 -9 -245 -18 -305 -39 -251
-21 55 -53 659 -41 773 8 71 17 105 48 163 l17 33 3 -33 c1 -18 10 -78 18
-133z m1689 -777 c-4 -13 -9 -66 -12 -118 -6 -94 -6 -94 -24 -71 -11 13 -19
36 -19 51 0 15 -9 53 -20 85 -11 32 -20 62 -20 67 0 4 23 8 51 8 49 0 51 -1
44 -22z m-1582 -505 c25 -32 55 -67 67 -78 12 -11 30 -36 40 -55 10 -19 41
-62 70 -95 29 -33 73 -85 98 -115 26 -30 89 -98 140 -150 72 -73 92 -99 88
-115 -3 -11 -6 -54 -6 -96 0 -64 -3 -78 -17 -84 -17 -7 -159 -24 -253 -30 -25
-2 -85 -8 -135 -15 -49 -6 -115 -14 -146 -17 l-57 -6 -7 169 c-9 200 -1 396
19 479 8 34 18 97 21 140 8 99 13 125 25 125 5 0 29 -26 53 -57z m687 -780 c0
-9 -13 -12 -39 -11 -38 1 -39 3 -43 39 -2 21 -2 43 0 49 5 14 82 -59 82 -77z
m-905 -19 c-3 -35 -10 -64 -15 -64 -5 0 -15 -3 -24 -6 -22 -9 -20 9 11 91 30
79 38 73 28 -21z m3630 -38 c55 -3 255 -10 445 -16 404 -12 669 -27 684 -39 6
-4 27 -11 46 -14 61 -9 276 -135 346 -203 56 -53 64 -66 64 -97 0 -32 -5 -39
-42 -61 -24 -14 -64 -30 -91 -36 -26 -5 -73 -19 -105 -29 -37 -12 -105 -22
-192 -27 -182 -11 -737 -7 -935 6 -211 14 -862 14 -1095 1 -102 -6 -246 -13
-320 -16 -74 -2 -189 -9 -255 -15 -106 -9 -239 -19 -470 -35 -128 -9 -329 -25
-380 -31 -27 -3 -99 -9 -160 -14 -60 -4 -144 -13 -185 -18 -41 -6 -121 -13
-177 -16 l-103 -6 7 32 c3 18 9 40 13 48 11 21 40 189 50 290 5 47 12 113 16
146 l7 61 60 7 c33 3 97 6 141 6 81 0 82 0 126 -40 64 -58 183 -115 236 -114
54 1 86 26 167 132 38 50 52 62 67 57 26 -8 223 16 231 28 4 5 14 5 26 -1 13
-7 51 -8 116 -2 53 5 163 9 244 9 139 0 536 10 540 14 4 5 789 -2 878 -7z
m-2236 -62 c13 -12 -19 -39 -50 -42 -25 -2 -41 4 -59 20 l-25 23 35 7 c35 6
89 2 99 -8z m-2718 -51 c57 -59 75 -88 59 -98 -21 -13 -135 -22 -142 -11 -9
13 -10 128 -2 150 10 27 27 18 85 -41z m2004 -75 c-4 -46 -10 -96 -15 -113 -4
-16 -11 -63 -14 -103 -4 -40 -15 -99 -25 -130 -10 -31 -24 -78 -32 -104 l-13
-46 -95 -11 c-53 -6 -127 -13 -166 -15 -38 -2 -77 -6 -85 -9 -8 -3 -48 -7 -88
-9 l-74 -4 6 36 c11 60 24 270 26 396 1 67 5 126 9 133 9 14 90 28 221 36 58
4 125 11 150 15 25 4 80 8 123 9 l78 1 -6 -82z m-689 -175 c-7 -181 -30 -352
-51 -372 -6 -5 -35 -12 -65 -16 -30 -3 -63 -8 -72 -11 -17 -5 -18 9 -18 203
l0 209 34 71 c19 39 40 74 47 78 17 11 68 23 103 24 l29 1 -7 -187z m-328 85
c-5 -67 -38 -138 -120 -264 -36 -54 -84 -130 -108 -168 -59 -92 -84 -106 -186
-106 -90 0 -94 3 -114 65 -7 22 -48 106 -90 186 -43 80 -80 161 -84 180 -15
77 -18 73 64 81 144 15 175 18 235 28 33 5 125 16 204 25 79 8 146 17 149 20
3 3 16 5 30 5 23 0 24 -2 20 -52z m-824 -90 c34 -78 105 -256 116 -293 7 -22
26 -71 42 -108 16 -38 28 -71 26 -73 -2 -2 -67 -10 -144 -18 -137 -15 -139
-15 -155 5 -11 15 -24 20 -45 17 -23 -2 -28 1 -26 14 1 10 -5 32 -14 49 -11
21 -16 55 -15 98 1 36 -4 113 -9 170 -13 121 -6 136 63 144 23 3 62 10 87 15
25 5 48 10 53 11 4 0 14 -14 21 -31z m-303 -200 c10 -95 23 -184 29 -198 5
-14 11 -47 12 -75 l3 -50 -145 -22 c-80 -12 -172 -22 -206 -22 -33 -1 -64 -4
-67 -7 -3 -4 -37 -8 -74 -11 -72 -4 -235 -20 -268 -27 -44 -8 -103 -16 -155
-21 -30 -3 -104 -9 -165 -15 -60 -6 -159 -15 -220 -21 -60 -5 -126 -14 -145
-19 -19 -6 -62 -10 -95 -10 -33 0 -117 -7 -187 -15 -188 -22 -532 -48 -843
-64 -173 -9 -513 -6 -541 6 -17 6 -20 13 -14 29 10 26 127 104 156 104 12 0
27 7 34 15 7 8 21 15 31 15 12 0 16 -5 13 -15 -9 -22 13 -18 25 4 6 10 26 22
45 25 19 4 48 13 63 21 15 8 44 15 63 15 35 0 129 19 225 46 56 15 201 46 224
48 9 1 21 7 27 15 7 9 20 12 36 8 14 -4 45 0 68 8 23 8 55 15 70 15 15 0 43 6
61 14 19 8 59 17 89 21 30 4 60 11 65 15 6 4 39 11 75 15 36 4 76 12 90 18 14
5 48 14 75 18 28 4 86 15 130 24 44 10 96 19 115 20 49 4 151 25 175 36 11 5
45 11 75 13 30 3 84 12 120 21 36 8 81 18 100 21 19 3 54 13 77 21 23 9 52 13
65 10 12 -4 42 0 67 7 84 25 185 47 300 66 63 11 121 22 130 26 17 7 164 31
169 28 2 -2 12 -81 23 -176z m6475 41 c19 -21 19 -21 -9 -8 -15 7 -27 16 -27
21 0 14 16 9 36 -13z m-5371 -155 c-8 -96 -16 -104 -96 -104 -48 0 -49 11 -5
64 18 23 48 65 67 95 18 30 35 49 37 42 2 -7 1 -51 -3 -97z m915 -131 c0 -16
-11 -59 -24 -98 -13 -38 -42 -142 -66 -230 -34 -128 -57 -190 -115 -310 -40
-82 -97 -202 -125 -265 -71 -156 -126 -236 -250 -363 -89 -90 -110 -107 -136
-107 -51 0 -67 28 -75 133 -7 102 14 252 51 360 11 31 20 64 20 72 0 8 11 38
24 67 22 49 78 219 139 428 14 47 29 122 32 168 11 125 14 127 200 141 83 7
175 16 205 20 109 16 120 14 120 -16z m-630 -62 c0 -16 -14 -82 -31 -147 -17
-66 -35 -139 -40 -164 -12 -59 -41 -148 -95 -290 -24 -63 -49 -139 -55 -168
-6 -28 -15 -50 -19 -47 -11 7 -4 239 10 350 16 124 42 312 54 395 l11 75 59 7
c32 4 61 10 64 13 3 3 14 5 24 5 13 0 18 -8 18 -29z m-329 -180 c-36 -186 -54
-409 -49 -598 6 -199 1 -204 -56 -65 -19 48 -51 125 -71 172 -20 47 -45 117
-55 155 -10 39 -28 93 -40 120 -12 28 -35 86 -51 129 l-30 80 77 77 c83 83 85
84 219 94 31 2 60 7 64 11 15 15 11 -77 -8 -175z m-376 119 c3 -5 1 -10 -4
-10 -6 0 -11 5 -11 10 0 6 2 10 4 10 3 0 8 -4 11 -10z m-135 -57 c11 -26 17
-50 13 -53 -26 -23 -155 -79 -192 -83 -42 -5 -48 -3 -83 33 -32 31 -38 45 -38
78 0 39 2 41 33 46 17 3 55 9 82 14 28 5 76 10 107 11 l57 1 21 -47z m-3547
-13 c-19 -22 -29 -19 -20 5 4 8 13 15 22 15 13 0 12 -3 -2 -20z"/>
</g>
</svg>
