<svg xmlns="http://www.w3.org/2000/svg" xmlns:xlink="http://www.w3.org/1999/xlink" width="98" zoomAndPan="magnify" viewBox="0 0 73.5 73.499996" height="98" preserveAspectRatio="xMidYMid meet" version="1.0"><defs><filter x="0%" y="0%" width="100%" height="100%" id="b8ace2dbf4"><feColorMatrix values="0 0 0 0 1 0 0 0 0 1 0 0 0 0 1 0 0 0 1 0" color-interpolation-filters="sRGB"/></filter><g/><clipPath id="192a22bdab"><path d="M 6 5 L 67.882812 5 L 67.882812 62.480469 L 6 62.480469 Z M 6 5 " clip-rule="nonzero"/></clipPath><clipPath id="4b6e67366e"><path d="M 5.308594 2.140625 L 28 2.140625 L 28 60 L 5.308594 60 Z M 5.308594 2.140625 " clip-rule="nonzero"/></clipPath><mask id="d9e308ccb7"><g filter="url(#b8ace2dbf4)"><rect x="-7.35" width="88.2" fill="#000000" y="-7.35" height="88.199995" fill-opacity="0.5"/></g></mask><clipPath id="7582f7cb6a"><rect x="0" width="61" y="0" height="8"/></clipPath></defs><g clip-path="url(#192a22bdab)"><path fill="#e5841a" d="M 67.882812 58.863281 L 36.335938 58.863281 C 35.390625 60.992188 33.234375 62.464844 30.734375 62.4375 C 28.808594 62.414062 27.113281 61.488281 26.027344 60.078125 C 25.863281 59.863281 26.015625 59.558594 26.296875 59.558594 L 30.480469 59.570312 L 32.40625 56.464844 L 30.480469 53.34375 L 26.296875 53.332031 C 26.027344 53.332031 25.875 53.027344 26.039062 52.8125 C 27.164062 51.367188 28.925781 50.441406 30.902344 50.464844 C 33.324219 50.503906 35.390625 51.960938 36.324219 54.03125 L 63.011719 54.03125 L 63.011719 27.726562 L 37.394531 10.910156 L 11.753906 27.726562 L 11.753906 54.296875 L 6.878906 54.296875 L 6.878906 25.113281 L 37.394531 5.101562 L 67.882812 25.113281 Z M 67.882812 58.863281 " fill-opacity="1" fill-rule="nonzero"/></g><path fill="#e5841a" d="M 50.355469 48.652344 L 57.601562 41.449219 L 57.601562 48.652344 Z M 50.355469 48.652344 " fill-opacity="1" fill-rule="nonzero"/><path fill="#4c4846" d="M 62.195312 31.164062 L 39.996094 53.230469 L 43.429688 53.230469 L 43.429688 51.492188 C 43.429688 51.339844 43.554688 51.214844 43.710938 51.214844 C 43.863281 51.214844 43.992188 51.339844 43.992188 51.492188 L 43.992188 53.230469 L 45.902344 53.230469 L 45.902344 51.492188 C 45.902344 51.339844 46.03125 51.214844 46.183594 51.214844 C 46.335938 51.214844 46.464844 51.339844 46.464844 51.492188 L 46.464844 53.230469 L 48.378906 53.230469 L 48.378906 51.492188 C 48.378906 51.339844 48.507812 51.214844 48.660156 51.214844 C 48.8125 51.214844 48.941406 51.339844 48.941406 51.492188 L 48.941406 53.230469 L 50.855469 53.230469 L 50.855469 51.492188 C 50.855469 51.339844 50.980469 51.214844 51.132812 51.214844 C 51.289062 51.214844 51.414062 51.339844 51.414062 51.492188 L 51.414062 53.230469 L 53.328125 53.230469 L 53.328125 51.492188 C 53.328125 51.339844 53.457031 51.214844 53.609375 51.214844 C 53.761719 51.214844 53.890625 51.339844 53.890625 51.492188 L 53.890625 53.230469 L 55.804688 53.230469 L 55.804688 51.492188 C 55.804688 51.339844 55.929688 51.214844 56.085938 51.214844 C 56.238281 51.214844 56.363281 51.339844 56.363281 51.492188 L 56.363281 53.230469 L 58.277344 53.230469 L 58.277344 51.492188 C 58.277344 51.339844 58.40625 51.214844 58.558594 51.214844 C 58.710938 51.214844 58.839844 51.339844 58.839844 51.492188 L 58.839844 53.230469 L 62.273438 53.230469 L 62.273438 49.820312 L 60.523438 49.820312 C 60.371094 49.820312 60.242188 49.691406 60.242188 49.539062 C 60.242188 49.386719 60.371094 49.261719 60.523438 49.261719 L 62.273438 49.261719 L 62.273438 47.359375 L 60.523438 47.359375 C 60.371094 47.359375 60.242188 47.230469 60.242188 47.078125 C 60.242188 46.925781 60.371094 46.800781 60.523438 46.800781 L 62.273438 46.800781 L 62.273438 44.898438 L 60.523438 44.898438 C 60.371094 44.898438 60.242188 44.769531 60.242188 44.621094 C 60.242188 44.46875 60.371094 44.339844 60.523438 44.339844 L 62.273438 44.339844 L 62.273438 42.4375 L 60.523438 42.4375 C 60.371094 42.4375 60.242188 42.3125 60.242188 42.160156 C 60.242188 42.007812 60.371094 41.878906 60.523438 41.878906 L 62.273438 41.878906 L 62.273438 39.976562 L 60.523438 39.976562 C 60.371094 39.976562 60.242188 39.851562 60.242188 39.699219 C 60.242188 39.546875 60.371094 39.417969 60.523438 39.417969 L 62.273438 39.417969 L 62.273438 37.515625 L 60.523438 37.515625 C 60.371094 37.515625 60.242188 37.390625 60.242188 37.238281 C 60.242188 37.085938 60.371094 36.957031 60.523438 36.957031 L 62.273438 36.957031 L 62.273438 35.054688 L 60.523438 35.054688 C 60.371094 35.054688 60.242188 34.929688 60.242188 34.777344 C 60.242188 34.625 60.371094 34.5 60.523438 34.5 L 62.273438 34.5 L 62.273438 31.164062 Z M 57.804688 40.953125 C 58.011719 41.042969 58.152344 41.234375 58.152344 41.460938 L 58.152344 48.664062 C 58.152344 48.96875 57.910156 49.210938 57.601562 49.210938 L 50.355469 49.210938 C 50.125 49.210938 49.933594 49.070312 49.847656 48.867188 C 49.820312 48.804688 49.808594 48.726562 49.808594 48.652344 C 49.808594 48.511719 49.859375 48.375 49.972656 48.257812 L 57.21875 41.054688 C 57.359375 40.914062 57.601562 40.863281 57.804688 40.953125 Z M 57.804688 40.953125 " fill-opacity="1" fill-rule="nonzero"/><g clip-path="url(#4b6e67366e)"><path fill="#4c4846" d="M 20.566406 15.171875 L 15.695312 18.367188 L 15.695312 12.023438 L 20.566406 12.023438 Z M 26.996094 2.171875 C 26.117188 2.15625 25.25 2.171875 24.371094 2.171875 C 24.140625 2.171875 23.972656 2.273438 23.871094 2.460938 C 23.617188 2.929688 22.941406 3.742188 22.214844 3.742188 C 21.269531 3.769531 20.644531 2.5625 19.765625 2.527344 C 17.953125 2.460938 16.140625 2.539062 14.328125 2.527344 C 10.730469 2.691406 7.8125 4.035156 5.4375 10.960938 C 5.398438 11.097656 5.308594 11.300781 5.476562 11.378906 C 6.140625 11.667969 9.113281 6.648438 13.296875 7.574219 C 15.683594 8.09375 15.71875 10.488281 15.695312 11.429688 L 20.582031 11.429688 C 20.582031 10.71875 20.582031 10.007812 20.582031 9.296875 C 20.59375 8.5625 20.824219 7.929688 21.398438 7.433594 C 21.792969 7.089844 22.40625 7.039062 22.878906 7.257812 C 23.335938 7.472656 23.589844 7.863281 23.820312 8.269531 C 23.960938 8.523438 24.152344 8.636719 24.445312 8.625 C 25.289062 8.613281 26.128906 8.625 26.972656 8.625 C 27.570312 8.625 27.980469 8.21875 27.980469 7.625 C 27.980469 6.140625 27.980469 4.65625 27.980469 3.183594 C 27.992188 2.601562 27.585938 2.183594 26.996094 2.171875 Z M 15.695312 26.394531 L 17.160156 26.394531 C 17.328125 26.394531 17.46875 26.535156 17.46875 26.699219 C 17.46875 26.863281 17.328125 27.003906 17.160156 27.003906 L 15.695312 27.003906 L 15.695312 28.308594 L 18.308594 28.308594 C 18.488281 28.308594 18.617188 28.449219 18.617188 28.613281 C 18.617188 28.777344 18.476562 28.917969 18.308594 28.917969 L 15.695312 28.917969 L 15.695312 30.222656 L 17.160156 30.222656 C 17.328125 30.222656 17.46875 30.363281 17.46875 30.527344 C 17.46875 30.695312 17.328125 30.832031 17.160156 30.832031 L 15.695312 30.832031 L 15.695312 32.140625 L 18.308594 32.140625 C 18.488281 32.140625 18.617188 32.277344 18.617188 32.445312 C 18.617188 32.609375 18.476562 32.75 18.308594 32.75 L 15.695312 32.75 L 15.695312 34.054688 L 17.160156 34.054688 C 17.328125 34.054688 17.46875 34.195312 17.46875 34.359375 C 17.46875 34.523438 17.328125 34.664062 17.160156 34.664062 L 15.695312 34.664062 L 15.695312 35.96875 L 18.308594 35.96875 C 18.488281 35.96875 18.617188 36.109375 18.617188 36.273438 C 18.617188 36.4375 18.476562 36.578125 18.308594 36.578125 L 15.695312 36.578125 L 15.695312 37.882812 L 17.160156 37.882812 C 17.328125 37.882812 17.46875 38.023438 17.46875 38.1875 C 17.46875 38.355469 17.328125 38.492188 17.160156 38.492188 L 15.695312 38.492188 L 15.695312 39.835938 L 18.308594 39.835938 C 18.488281 39.835938 18.617188 39.976562 18.617188 40.140625 C 18.617188 40.308594 18.476562 40.445312 18.308594 40.445312 L 15.695312 40.445312 L 15.695312 41.753906 L 17.160156 41.753906 C 17.328125 41.753906 17.46875 41.890625 17.46875 42.058594 C 17.46875 42.222656 17.328125 42.363281 17.160156 42.363281 L 15.695312 42.363281 L 15.695312 43.679688 L 18.308594 43.679688 C 18.488281 43.679688 18.617188 43.820312 18.617188 43.984375 C 18.617188 44.148438 18.476562 44.289062 18.308594 44.289062 L 15.695312 44.289062 L 15.695312 45.597656 L 17.160156 45.597656 C 17.328125 45.597656 17.46875 45.734375 17.46875 45.898438 C 17.46875 46.066406 17.328125 46.203125 17.160156 46.203125 L 15.695312 46.203125 L 15.695312 47.523438 L 18.308594 47.523438 C 18.488281 47.523438 18.617188 47.664062 18.617188 47.828125 C 18.617188 47.992188 18.476562 48.132812 18.308594 48.132812 L 15.695312 48.132812 L 15.695312 49.453125 L 17.160156 49.453125 C 17.328125 49.453125 17.46875 49.589844 17.46875 49.753906 C 17.46875 49.921875 17.328125 50.058594 17.160156 50.058594 L 15.695312 50.058594 L 15.695312 51.378906 L 18.308594 51.378906 C 18.488281 51.378906 18.617188 51.519531 18.617188 51.683594 C 18.617188 51.847656 18.476562 51.988281 18.308594 51.988281 L 15.695312 51.988281 L 15.695312 53.28125 L 17.160156 53.28125 C 17.328125 53.28125 17.46875 53.421875 17.46875 53.585938 C 17.46875 53.75 17.328125 53.890625 17.160156 53.890625 L 15.695312 53.890625 L 15.695312 54.992188 L 6.878906 54.992188 L 6.878906 59.839844 L 7.121094 59.839844 L 7.121094 58.378906 C 7.121094 58.203125 7.261719 58.074219 7.429688 58.074219 C 7.59375 58.074219 7.734375 58.214844 7.734375 58.378906 L 7.734375 59.839844 L 9.0625 59.839844 L 9.0625 57.238281 C 9.0625 57.0625 9.203125 56.933594 9.367188 56.933594 C 9.53125 56.933594 9.671875 57.074219 9.671875 57.238281 L 9.671875 59.839844 L 10.988281 59.839844 L 10.988281 58.378906 C 10.988281 58.203125 11.128906 58.074219 11.292969 58.074219 C 11.460938 58.074219 11.601562 58.214844 11.601562 58.378906 L 11.601562 59.839844 L 12.925781 59.839844 L 12.925781 57.238281 C 12.925781 57.0625 13.066406 56.933594 13.234375 56.933594 C 13.398438 56.933594 13.539062 57.074219 13.539062 57.238281 L 13.539062 59.839844 L 14.867188 59.839844 L 14.867188 58.378906 C 14.867188 58.203125 15.007812 58.074219 15.171875 58.074219 C 15.335938 58.074219 15.476562 58.214844 15.476562 58.378906 L 15.476562 59.839844 L 16.804688 59.839844 L 16.804688 57.238281 C 16.804688 57.0625 16.945312 56.933594 17.109375 56.933594 C 17.277344 56.933594 17.417969 57.074219 17.417969 57.238281 L 17.417969 59.839844 L 18.742188 59.839844 L 18.742188 58.378906 C 18.742188 58.203125 18.882812 58.074219 19.050781 58.074219 C 19.214844 58.074219 19.355469 58.214844 19.355469 58.378906 L 19.355469 59.839844 L 20.605469 59.839844 L 20.605469 23.136719 L 15.734375 26.332031 L 15.734375 26.394531 Z M 15.695312 26.394531 " fill-opacity="1" fill-rule="nonzero"/></g><path fill="#e5841a" d="M 30.429688 33.964844 L 36.921875 33.964844 L 36.921875 40.421875 L 31.359375 40.421875 C 30.851562 40.421875 30.429688 40.015625 30.429688 39.496094 Z M 37.839844 33.964844 L 37.839844 40.421875 L 43.402344 40.421875 C 43.914062 40.421875 44.335938 40.015625 44.335938 39.496094 L 44.335938 33.964844 Z M 30.429688 27.511719 L 30.429688 33.039062 L 36.921875 33.039062 L 36.921875 26.585938 L 31.359375 26.585938 C 30.835938 26.597656 30.429688 27.003906 30.429688 27.511719 Z M 43.402344 26.597656 L 37.839844 26.597656 L 37.839844 33.050781 L 44.335938 33.050781 L 44.335938 27.523438 C 44.335938 27.003906 43.925781 26.597656 43.402344 26.597656 Z M 43.402344 26.597656 " fill-opacity="1" fill-rule="nonzero"/><g mask="url(#d9e308ccb7)"><g transform="matrix(1, 0, 0, 1, 6, 62)"><g clip-path="url(#7582f7cb6a)"><g fill="#000000" fill-opacity="1"><g transform="translate(0.87384, 5.675288)"><g><path d="M 3.78125 0 L 3.78125 -2.46875 C 3.78125 -2.519531 3.78125 -2.570312 3.78125 -2.625 C 3.78125 -2.6875 3.789062 -2.929688 3.8125 -3.359375 C 3.675781 -2.835938 3.570312 -2.472656 3.5 -2.265625 L 2.765625 0 L 2.15625 0 L 1.421875 -2.265625 L 1.125 -3.359375 C 1.144531 -2.910156 1.15625 -2.613281 1.15625 -2.46875 L 1.15625 0 L 0.390625 0 L 0.390625 -4.078125 L 1.53125 -4.078125 L 2.265625 -1.796875 L 2.328125 -1.578125 L 2.46875 -1.03125 L 2.65625 -1.6875 L 3.40625 -4.078125 L 4.53125 -4.078125 L 4.53125 0 Z M 3.78125 0 "/></g></g><g transform="translate(5.802547, 5.675288)"><g><path d="M 0.390625 0 L 0.390625 -4.078125 L 1.25 -4.078125 L 1.25 -0.65625 L 3.4375 -0.65625 L 3.4375 0 Z M 0.390625 0 "/></g></g><g transform="translate(9.41674, 5.675288)"><g><path d="M 2.875 0 L 1.109375 -3.140625 C 1.140625 -2.835938 1.15625 -2.59375 1.15625 -2.40625 L 1.15625 0 L 0.390625 0 L 0.390625 -4.078125 L 1.375 -4.078125 L 3.171875 -0.90625 C 3.140625 -1.195312 3.125 -1.460938 3.125 -1.703125 L 3.125 -4.078125 L 3.875 -4.078125 L 3.875 0 Z M 2.875 0 "/></g></g><g transform="translate(13.689635, 5.675288)"><g/></g><g transform="translate(15.333501, 5.675288)"><g><path d="M 2.296875 -0.609375 C 2.816406 -0.609375 3.175781 -0.867188 3.375 -1.390625 L 4.109375 -1.109375 C 3.953125 -0.710938 3.71875 -0.414062 3.40625 -0.21875 C 3.101562 -0.03125 2.734375 0.0625 2.296875 0.0625 C 1.640625 0.0625 1.132812 -0.125 0.78125 -0.5 C 0.425781 -0.875 0.25 -1.394531 0.25 -2.0625 C 0.25 -2.726562 0.421875 -3.238281 0.765625 -3.59375 C 1.109375 -3.957031 1.609375 -4.140625 2.265625 -4.140625 C 2.742188 -4.140625 3.128906 -4.039062 3.421875 -3.84375 C 3.722656 -3.65625 3.9375 -3.375 4.0625 -3 L 3.3125 -2.796875 C 3.25 -3.003906 3.125 -3.164062 2.9375 -3.28125 C 2.75 -3.40625 2.53125 -3.46875 2.28125 -3.46875 C 1.894531 -3.46875 1.601562 -3.347656 1.40625 -3.109375 C 1.207031 -2.867188 1.109375 -2.519531 1.109375 -2.0625 C 1.109375 -1.59375 1.207031 -1.234375 1.40625 -0.984375 C 1.613281 -0.734375 1.910156 -0.609375 2.296875 -0.609375 Z M 2.296875 -0.609375 "/></g></g><g transform="translate(19.606395, 5.675288)"><g><path d="M 3.390625 -1.5625 C 3.390625 -1.0625 3.25 -0.664062 2.96875 -0.375 C 2.6875 -0.0820312 2.296875 0.0625 1.796875 0.0625 C 1.304688 0.0625 0.921875 -0.0820312 0.640625 -0.375 C 0.367188 -0.664062 0.234375 -1.0625 0.234375 -1.5625 C 0.234375 -2.070312 0.367188 -2.46875 0.640625 -2.75 C 0.921875 -3.039062 1.3125 -3.1875 1.8125 -3.1875 C 2.320312 -3.1875 2.710938 -3.046875 2.984375 -2.765625 C 3.253906 -2.484375 3.390625 -2.082031 3.390625 -1.5625 Z M 2.53125 -1.5625 C 2.53125 -1.9375 2.46875 -2.207031 2.34375 -2.375 C 2.226562 -2.539062 2.054688 -2.625 1.828125 -2.625 C 1.328125 -2.625 1.078125 -2.269531 1.078125 -1.5625 C 1.078125 -1.21875 1.140625 -0.953125 1.265625 -0.765625 C 1.390625 -0.585938 1.5625 -0.5 1.78125 -0.5 C 2.28125 -0.5 2.53125 -0.851562 2.53125 -1.5625 Z M 2.53125 -1.5625 "/></g></g><g transform="translate(23.220588, 5.675288)"><g><path d="M 2.4375 0 L 2.4375 -1.75 C 2.4375 -2.300781 2.25 -2.578125 1.875 -2.578125 C 1.6875 -2.578125 1.53125 -2.492188 1.40625 -2.328125 C 1.28125 -2.160156 1.21875 -1.941406 1.21875 -1.671875 L 1.21875 0 L 0.40625 0 L 0.40625 -2.421875 C 0.40625 -2.597656 0.40625 -2.738281 0.40625 -2.84375 C 0.40625 -2.945312 0.398438 -3.039062 0.390625 -3.125 L 1.171875 -3.125 C 1.171875 -3.09375 1.175781 -2.992188 1.1875 -2.828125 C 1.195312 -2.671875 1.203125 -2.5625 1.203125 -2.5 L 1.21875 -2.5 C 1.320312 -2.738281 1.457031 -2.910156 1.625 -3.015625 C 1.789062 -3.128906 1.988281 -3.1875 2.21875 -3.1875 C 2.550781 -3.1875 2.804688 -3.082031 2.984375 -2.875 C 3.160156 -2.675781 3.25 -2.378906 3.25 -1.984375 L 3.25 0 Z M 2.4375 0 "/></g></g><g transform="translate(26.834781, 5.675288)"><g><path d="M 3.046875 -0.90625 C 3.046875 -0.601562 2.921875 -0.363281 2.671875 -0.1875 C 2.429688 -0.0195312 2.09375 0.0625 1.65625 0.0625 C 1.21875 0.0625 0.882812 -0.00390625 0.65625 -0.140625 C 0.4375 -0.273438 0.285156 -0.488281 0.203125 -0.78125 L 0.921875 -0.890625 C 0.960938 -0.742188 1.03125 -0.640625 1.125 -0.578125 C 1.226562 -0.515625 1.40625 -0.484375 1.65625 -0.484375 C 1.882812 -0.484375 2.046875 -0.507812 2.140625 -0.5625 C 2.242188 -0.625 2.296875 -0.71875 2.296875 -0.84375 C 2.296875 -0.9375 2.253906 -1.015625 2.171875 -1.078125 C 2.085938 -1.140625 1.945312 -1.1875 1.75 -1.21875 C 1.289062 -1.3125 0.976562 -1.394531 0.8125 -1.46875 C 0.65625 -1.550781 0.535156 -1.65625 0.453125 -1.78125 C 0.367188 -1.90625 0.328125 -2.054688 0.328125 -2.234375 C 0.328125 -2.535156 0.441406 -2.769531 0.671875 -2.9375 C 0.910156 -3.101562 1.238281 -3.1875 1.65625 -3.1875 C 2.03125 -3.1875 2.328125 -3.113281 2.546875 -2.96875 C 2.773438 -2.820312 2.921875 -2.613281 2.984375 -2.34375 L 2.265625 -2.265625 C 2.234375 -2.390625 2.171875 -2.484375 2.078125 -2.546875 C 1.992188 -2.617188 1.851562 -2.65625 1.65625 -2.65625 C 1.46875 -2.65625 1.320312 -2.628906 1.21875 -2.578125 C 1.125 -2.523438 1.078125 -2.441406 1.078125 -2.328125 C 1.078125 -2.234375 1.113281 -2.160156 1.1875 -2.109375 C 1.257812 -2.054688 1.382812 -2.015625 1.5625 -1.984375 C 1.8125 -1.929688 2.03125 -1.878906 2.21875 -1.828125 C 2.40625 -1.773438 2.554688 -1.710938 2.671875 -1.640625 C 2.785156 -1.566406 2.875 -1.472656 2.9375 -1.359375 C 3.007812 -1.242188 3.046875 -1.09375 3.046875 -0.90625 Z M 3.046875 -0.90625 "/></g></g><g transform="translate(30.125401, 5.675288)"><g><path d="M 1.21875 0.046875 C 0.976562 0.046875 0.789062 -0.015625 0.65625 -0.140625 C 0.53125 -0.273438 0.46875 -0.472656 0.46875 -0.734375 L 0.46875 -2.578125 L 0.078125 -2.578125 L 0.078125 -3.125 L 0.515625 -3.125 L 0.765625 -3.859375 L 1.265625 -3.859375 L 1.265625 -3.125 L 1.859375 -3.125 L 1.859375 -2.578125 L 1.265625 -2.578125 L 1.265625 -0.953125 C 1.265625 -0.796875 1.296875 -0.679688 1.359375 -0.609375 C 1.421875 -0.546875 1.507812 -0.515625 1.625 -0.515625 C 1.6875 -0.515625 1.78125 -0.523438 1.90625 -0.546875 L 1.90625 -0.046875 C 1.695312 0.015625 1.46875 0.046875 1.21875 0.046875 Z M 1.21875 0.046875 "/></g></g><g transform="translate(32.095729, 5.675288)"><g><path d="M 0.40625 0 L 0.40625 -2.390625 C 0.40625 -2.566406 0.40625 -2.710938 0.40625 -2.828125 C 0.40625 -2.941406 0.398438 -3.039062 0.390625 -3.125 L 1.171875 -3.125 C 1.171875 -3.09375 1.175781 -2.988281 1.1875 -2.8125 C 1.195312 -2.632812 1.203125 -2.515625 1.203125 -2.453125 L 1.21875 -2.453125 C 1.289062 -2.679688 1.359375 -2.835938 1.421875 -2.921875 C 1.484375 -3.015625 1.554688 -3.082031 1.640625 -3.125 C 1.722656 -3.164062 1.832031 -3.1875 1.96875 -3.1875 C 2.070312 -3.1875 2.15625 -3.171875 2.21875 -3.140625 L 2.21875 -2.46875 C 2.082031 -2.5 1.96875 -2.515625 1.875 -2.515625 C 1.664062 -2.515625 1.503906 -2.429688 1.390625 -2.265625 C 1.273438 -2.097656 1.21875 -1.851562 1.21875 -1.53125 L 1.21875 0 Z M 0.40625 0 "/></g></g><g transform="translate(34.398296, 5.675288)"><g><path d="M 1.1875 -3.125 L 1.1875 -1.375 C 1.1875 -0.820312 1.367188 -0.546875 1.734375 -0.546875 C 1.929688 -0.546875 2.085938 -0.628906 2.203125 -0.796875 C 2.328125 -0.972656 2.390625 -1.191406 2.390625 -1.453125 L 2.390625 -3.125 L 3.203125 -3.125 L 3.203125 -0.703125 C 3.203125 -0.429688 3.210938 -0.195312 3.234375 0 L 2.453125 0 C 2.429688 -0.28125 2.421875 -0.488281 2.421875 -0.625 L 2.40625 -0.625 C 2.289062 -0.382812 2.148438 -0.207031 1.984375 -0.09375 C 1.816406 0.0078125 1.617188 0.0625 1.390625 0.0625 C 1.066406 0.0625 0.816406 -0.0351562 0.640625 -0.234375 C 0.460938 -0.441406 0.375 -0.742188 0.375 -1.140625 L 0.375 -3.125 Z M 1.1875 -3.125 "/></g></g><g transform="translate(38.012489, 5.675288)"><g><path d="M 1.71875 0.0625 C 1.238281 0.0625 0.867188 -0.078125 0.609375 -0.359375 C 0.359375 -0.648438 0.234375 -1.046875 0.234375 -1.546875 C 0.234375 -2.066406 0.363281 -2.46875 0.625 -2.75 C 0.882812 -3.039062 1.253906 -3.1875 1.734375 -3.1875 C 2.097656 -3.1875 2.398438 -3.09375 2.640625 -2.90625 C 2.878906 -2.71875 3.03125 -2.460938 3.09375 -2.140625 L 2.28125 -2.109375 C 2.257812 -2.265625 2.203125 -2.390625 2.109375 -2.484375 C 2.015625 -2.578125 1.882812 -2.625 1.71875 -2.625 C 1.289062 -2.625 1.078125 -2.273438 1.078125 -1.578125 C 1.078125 -0.859375 1.289062 -0.5 1.71875 -0.5 C 1.875 -0.5 2.003906 -0.546875 2.109375 -0.640625 C 2.210938 -0.742188 2.273438 -0.890625 2.296875 -1.078125 L 3.125 -1.046875 C 3.09375 -0.828125 3.015625 -0.632812 2.890625 -0.46875 C 2.765625 -0.300781 2.597656 -0.171875 2.390625 -0.078125 C 2.191406 0.015625 1.96875 0.0625 1.71875 0.0625 Z M 1.71875 0.0625 "/></g></g><g transform="translate(41.303109, 5.675288)"><g><path d="M 1.71875 0.0625 C 1.238281 0.0625 0.867188 -0.078125 0.609375 -0.359375 C 0.359375 -0.648438 0.234375 -1.046875 0.234375 -1.546875 C 0.234375 -2.066406 0.363281 -2.46875 0.625 -2.75 C 0.882812 -3.039062 1.253906 -3.1875 1.734375 -3.1875 C 2.097656 -3.1875 2.398438 -3.09375 2.640625 -2.90625 C 2.878906 -2.71875 3.03125 -2.460938 3.09375 -2.140625 L 2.28125 -2.109375 C 2.257812 -2.265625 2.203125 -2.390625 2.109375 -2.484375 C 2.015625 -2.578125 1.882812 -2.625 1.71875 -2.625 C 1.289062 -2.625 1.078125 -2.273438 1.078125 -1.578125 C 1.078125 -0.859375 1.289062 -0.5 1.71875 -0.5 C 1.875 -0.5 2.003906 -0.546875 2.109375 -0.640625 C 2.210938 -0.742188 2.273438 -0.890625 2.296875 -1.078125 L 3.125 -1.046875 C 3.09375 -0.828125 3.015625 -0.632812 2.890625 -0.46875 C 2.765625 -0.300781 2.597656 -0.171875 2.390625 -0.078125 C 2.191406 0.015625 1.96875 0.0625 1.71875 0.0625 Z M 1.71875 0.0625 "/></g></g><g transform="translate(44.593729, 5.675288)"><g><path d="M 0.40625 -3.6875 L 0.40625 -4.296875 L 1.21875 -4.296875 L 1.21875 -3.6875 Z M 0.40625 0 L 0.40625 -3.125 L 1.21875 -3.125 L 1.21875 0 Z M 0.40625 0 "/></g></g><g transform="translate(46.237595, 5.675288)"><g><path d="M 3.390625 -1.5625 C 3.390625 -1.0625 3.25 -0.664062 2.96875 -0.375 C 2.6875 -0.0820312 2.296875 0.0625 1.796875 0.0625 C 1.304688 0.0625 0.921875 -0.0820312 0.640625 -0.375 C 0.367188 -0.664062 0.234375 -1.0625 0.234375 -1.5625 C 0.234375 -2.070312 0.367188 -2.46875 0.640625 -2.75 C 0.921875 -3.039062 1.3125 -3.1875 1.8125 -3.1875 C 2.320312 -3.1875 2.710938 -3.046875 2.984375 -2.765625 C 3.253906 -2.484375 3.390625 -2.082031 3.390625 -1.5625 Z M 2.53125 -1.5625 C 2.53125 -1.9375 2.46875 -2.207031 2.34375 -2.375 C 2.226562 -2.539062 2.054688 -2.625 1.828125 -2.625 C 1.328125 -2.625 1.078125 -2.269531 1.078125 -1.5625 C 1.078125 -1.21875 1.140625 -0.953125 1.265625 -0.765625 C 1.390625 -0.585938 1.5625 -0.5 1.78125 -0.5 C 2.28125 -0.5 2.53125 -0.851562 2.53125 -1.5625 Z M 2.53125 -1.5625 "/></g></g><g transform="translate(49.851788, 5.675288)"><g><path d="M 2.4375 0 L 2.4375 -1.75 C 2.4375 -2.300781 2.25 -2.578125 1.875 -2.578125 C 1.6875 -2.578125 1.53125 -2.492188 1.40625 -2.328125 C 1.28125 -2.160156 1.21875 -1.941406 1.21875 -1.671875 L 1.21875 0 L 0.40625 0 L 0.40625 -2.421875 C 0.40625 -2.597656 0.40625 -2.738281 0.40625 -2.84375 C 0.40625 -2.945312 0.398438 -3.039062 0.390625 -3.125 L 1.171875 -3.125 C 1.171875 -3.09375 1.175781 -2.992188 1.1875 -2.828125 C 1.195312 -2.671875 1.203125 -2.5625 1.203125 -2.5 L 1.21875 -2.5 C 1.320312 -2.738281 1.457031 -2.910156 1.625 -3.015625 C 1.789062 -3.128906 1.988281 -3.1875 2.21875 -3.1875 C 2.550781 -3.1875 2.804688 -3.082031 2.984375 -2.875 C 3.160156 -2.675781 3.25 -2.378906 3.25 -1.984375 L 3.25 0 Z M 2.4375 0 "/></g></g><g transform="translate(53.465981, 5.675288)"><g><path d="M 1.6875 0.0625 C 1.21875 0.0625 0.859375 -0.078125 0.609375 -0.359375 C 0.359375 -0.640625 0.234375 -1.046875 0.234375 -1.578125 C 0.234375 -2.097656 0.359375 -2.492188 0.609375 -2.765625 C 0.867188 -3.046875 1.234375 -3.1875 1.703125 -3.1875 C 2.148438 -3.1875 2.492188 -3.035156 2.734375 -2.734375 C 2.972656 -2.441406 3.09375 -2.007812 3.09375 -1.4375 L 3.09375 -1.40625 L 1.078125 -1.40625 C 1.078125 -1.101562 1.132812 -0.875 1.25 -0.71875 C 1.363281 -0.5625 1.523438 -0.484375 1.734375 -0.484375 C 2.023438 -0.484375 2.207031 -0.609375 2.28125 -0.859375 L 3.046875 -0.796875 C 2.828125 -0.222656 2.375 0.0625 1.6875 0.0625 Z M 1.6875 -2.671875 C 1.5 -2.671875 1.351562 -2.601562 1.25 -2.46875 C 1.144531 -2.34375 1.09375 -2.160156 1.09375 -1.921875 L 2.296875 -1.921875 C 2.285156 -2.171875 2.226562 -2.359375 2.125 -2.484375 C 2.019531 -2.609375 1.875 -2.671875 1.6875 -2.671875 Z M 1.6875 -2.671875 "/></g></g><g transform="translate(56.756601, 5.675288)"><g><path d="M 3.046875 -0.90625 C 3.046875 -0.601562 2.921875 -0.363281 2.671875 -0.1875 C 2.429688 -0.0195312 2.09375 0.0625 1.65625 0.0625 C 1.21875 0.0625 0.882812 -0.00390625 0.65625 -0.140625 C 0.4375 -0.273438 0.285156 -0.488281 0.203125 -0.78125 L 0.921875 -0.890625 C 0.960938 -0.742188 1.03125 -0.640625 1.125 -0.578125 C 1.226562 -0.515625 1.40625 -0.484375 1.65625 -0.484375 C 1.882812 -0.484375 2.046875 -0.507812 2.140625 -0.5625 C 2.242188 -0.625 2.296875 -0.71875 2.296875 -0.84375 C 2.296875 -0.9375 2.253906 -1.015625 2.171875 -1.078125 C 2.085938 -1.140625 1.945312 -1.1875 1.75 -1.21875 C 1.289062 -1.3125 0.976562 -1.394531 0.8125 -1.46875 C 0.65625 -1.550781 0.535156 -1.65625 0.453125 -1.78125 C 0.367188 -1.90625 0.328125 -2.054688 0.328125 -2.234375 C 0.328125 -2.535156 0.441406 -2.769531 0.671875 -2.9375 C 0.910156 -3.101562 1.238281 -3.1875 1.65625 -3.1875 C 2.03125 -3.1875 2.328125 -3.113281 2.546875 -2.96875 C 2.773438 -2.820312 2.921875 -2.613281 2.984375 -2.34375 L 2.265625 -2.265625 C 2.234375 -2.390625 2.171875 -2.484375 2.078125 -2.546875 C 1.992188 -2.617188 1.851562 -2.65625 1.65625 -2.65625 C 1.46875 -2.65625 1.320312 -2.628906 1.21875 -2.578125 C 1.125 -2.523438 1.078125 -2.441406 1.078125 -2.328125 C 1.078125 -2.234375 1.113281 -2.160156 1.1875 -2.109375 C 1.257812 -2.054688 1.382812 -2.015625 1.5625 -1.984375 C 1.8125 -1.929688 2.03125 -1.878906 2.21875 -1.828125 C 2.40625 -1.773438 2.554688 -1.710938 2.671875 -1.640625 C 2.785156 -1.566406 2.875 -1.472656 2.9375 -1.359375 C 3.007812 -1.242188 3.046875 -1.09375 3.046875 -0.90625 Z M 3.046875 -0.90625 "/></g></g></g></g></g></g></svg>